<svg xmlns="http://www.w3.org/2000/svg" width="29.631" height="29.619" viewBox="0 0 29.631 29.619">
  <g id="Syzee_Icons-02" transform="translate(0 -0.005)">
    <g id="Group_9360" data-name="Group 9360" transform="translate(0 0.005)">
      <path id="Path_3764" data-name="Path 3764" d="M11.751,29.624A3.128,3.128,0,0,1,9.5,28.688L.936,20.127a3.183,3.183,0,0,1,0-4.508L15.408,1.146A3.8,3.8,0,0,1,18.357.012L26.21.395a3.2,3.2,0,0,1,3.033,3.033l.383,7.853a3.894,3.894,0,0,1-1.134,2.948L14.019,28.688A3.16,3.16,0,0,1,11.751,29.624Zm6.407-27.5a1.725,1.725,0,0,0-1.247.524L2.438,17.122a1.061,1.061,0,0,0,0,1.5L11,27.186a1.1,1.1,0,0,0,1.5,0L26.975,12.713a1.739,1.739,0,0,0,.51-1.332h0L27.1,3.528A1.06,1.06,0,0,0,26.1,2.521l-7.853-.4Z" transform="translate(0 -0.005)" fill="#12131a"/>
    </g>
    <g id="Group_9361" data-name="Group 9361" transform="translate(16.401 5.682)">
      <path id="Path_3765" data-name="Path 3765" d="M15.341,11.551a3.771,3.771,0,1,1,2.665-1.106A3.757,3.757,0,0,1,15.341,11.551Zm0-5.415a1.619,1.619,0,0,0-1.162.482,1.644,1.644,0,1,0,2.325,0A1.679,1.679,0,0,0,15.341,6.136Z" transform="translate(-11.57 -4.01)" fill="#12131a"/>
    </g>
  </g>
</svg>
