<svg id="Group_10738" data-name="Group 10738" xmlns="http://www.w3.org/2000/svg" width="30.29" height="29.618" viewBox="0 0 30.29 29.618">
  <g id="Group_10737" data-name="Group 10737">
    <g id="Group_9357" data-name="Group 9357">
      <path id="Path_3761" data-name="Path 3761" d="M4.729,17.229a5.471,5.471,0,0,1-1.249-.156A4.683,4.683,0,0,1,.159,13.766a4.736,4.736,0,0,1,.312-3.335c0-.014.014-.028.028-.043L3.807,2.413A3.9,3.9,0,0,1,7.412,0H22.867a3.9,3.9,0,0,1,3.6,2.413l3.307,7.976c.014.014.014.028.028.043a4.814,4.814,0,0,1,.312,3.335,4.719,4.719,0,0,1-8.033,1.916,4.689,4.689,0,0,1-3.463,1.533,4.637,4.637,0,0,1-3.463-1.533,4.694,4.694,0,0,1-6.94,0A4.706,4.706,0,0,1,4.729,17.229Zm-2.37-5.776a2.666,2.666,0,0,0-.128,1.76A2.535,2.535,0,0,0,4.02,14.987a2.59,2.59,0,0,0,3.165-1.731A1.082,1.082,0,0,1,8.206,12.5h0a1.064,1.064,0,0,1,1.022.752,2.568,2.568,0,0,0,4.911.028,1.057,1.057,0,0,1,2.015,0,2.57,2.57,0,0,0,4.911-.014,1.065,1.065,0,0,1,1.008-.738h0a1.07,1.07,0,0,1,1.022.738A2.6,2.6,0,0,0,26.259,15a2.536,2.536,0,0,0,1.788-1.774,2.708,2.708,0,0,0-.128-1.774.663.663,0,0,1-.071-.142L24.5,3.222a1.745,1.745,0,0,0-1.632-1.093H7.412A1.779,1.779,0,0,0,5.765,3.222l-3.349,8.09A1.472,1.472,0,0,1,2.359,11.453Z" transform="translate(0.008)" fill="#12131a"/>
    </g>
    <g id="Group_9358" data-name="Group 9358" transform="translate(3.602 15.1)">
      <path id="Path_3762" data-name="Path 3762" d="M23.151,25.159H5.014A2.5,2.5,0,0,1,2.53,22.675V11.7a1.064,1.064,0,0,1,2.129,0V22.675a.351.351,0,0,0,.355.355H23.151a.351.351,0,0,0,.355-.355V11.7a1.064,1.064,0,0,1,2.129,0V22.675A2.5,2.5,0,0,1,23.151,25.159Z" transform="translate(-2.53 -10.64)" fill="#12131a"/>
    </g>
  </g>
  <g id="Group_9359" data-name="Group 9359" transform="translate(10.77 20.053)">
    <path id="Path_3763" data-name="Path 3763" d="M15.286,23.7a1.072,1.072,0,0,1-1.064-1.064V18.515a2.257,2.257,0,1,0-4.513,0v4.116a1.064,1.064,0,0,1-2.129,0V18.515a4.385,4.385,0,1,1,8.771,0v4.116A1.072,1.072,0,0,1,15.286,23.7Z" transform="translate(-7.58 -14.13)" fill="#12131a"/>
  </g>
</svg>
