<svg xmlns="http://www.w3.org/2000/svg" width="22.967" height="29.619" viewBox="0 0 22.967 29.619">
  <g id="Group_10739" data-name="Group 10739" transform="translate(-15433.445 -5876.012)">
    <path id="Path_3842" data-name="Path 3842" d="M10.286,15.549c-4.622,0-8.376-3.485-8.376-7.774S5.664,0,10.286,0s8.376,3.485,8.376,7.774S14.908,15.549,10.286,15.549Zm0-13.353a5.814,5.814,0,0,0-6.01,5.578,5.814,5.814,0,0,0,6.01,5.578A5.814,5.814,0,0,0,16.3,7.774,5.814,5.814,0,0,0,10.286,2.2Z" transform="translate(15434.548 5876.012)" fill="#009c95"/>
    <path id="Path_3843" data-name="Path 3843" d="M18.629,25.386H4.338A4.188,4.188,0,0,1,0,21.36V19.779C0,13.908,5.158,9.12,11.484,9.12s11.484,4.788,11.484,10.659v1.6A4.186,4.186,0,0,1,18.629,25.386Zm-7.146-14.07c-5.032,0-9.117,3.792-9.117,8.462v1.6A1.906,1.906,0,0,0,4.338,23.2H18.629a1.906,1.906,0,0,0,1.972-1.83v-1.6C20.6,15.108,16.516,11.316,11.484,11.316Z" transform="translate(15433.445 5880.245)" fill="#009c95"/>
  </g>
</svg>
