<svg id="Syzee_Icons-03" xmlns="http://www.w3.org/2000/svg" width="31.209" height="26.352" viewBox="0 0 31.209 26.352">
  <path id="Path_3766" data-name="Path 3766" d="M15.6,26.352a3.081,3.081,0,0,1-2.194-.911L2.483,14.528A8.513,8.513,0,0,1,8.513,0a8.408,8.408,0,0,1,6.015,2.5L15.6,3.573,16.68,2.5A8.512,8.512,0,0,1,28.725,14.528L17.8,25.455A3.125,3.125,0,0,1,15.6,26.352ZM8.513,2.07a6.443,6.443,0,0,0-4.553,11L14.887,23.993a1.041,1.041,0,0,0,1.462,0L27.276,13.066A6.439,6.439,0,1,0,18.17,3.96L16.846,5.284a1.724,1.724,0,0,1-2.442,0L13.066,3.96A6.445,6.445,0,0,0,8.513,2.07Zm7.34,1.752h0Z" transform="translate(0)" fill="#009b93"/>
</svg>
