<svg id="Syzee_Icons-31" xmlns="http://www.w3.org/2000/svg" width="18.454" height="24.396" viewBox="0 0 18.454 24.396">
  <g id="Group_9977" data-name="Group 9977" transform="translate(0 9.105)">
    <path id="Path_4064" data-name="Path 4064" d="M15.738,22.841H2.714a2.728,2.728,0,0,1-2.05-.929,2.684,2.684,0,0,1-.639-2.147l1.423-10.4A2.116,2.116,0,0,1,3.534,7.55H14.918A2.106,2.106,0,0,1,17,9.371l1.423,10.383a2.728,2.728,0,0,1-.639,2.147A2.7,2.7,0,0,1,15.738,22.841ZM3.534,9.359a.309.309,0,0,0-.3.265L1.809,20.007a.887.887,0,0,0,.217.724.876.876,0,0,0,.675.314H15.726a.858.858,0,0,0,.675-.314.93.93,0,0,0,.217-.724L15.2,9.624a.311.311,0,0,0-.3-.265H3.534Z" transform="translate(0.002 -7.55)" fill="#12131a"/>
  </g>
  <g id="Group_9978" data-name="Group 9978" transform="translate(4.114)">
    <path id="Path_4065" data-name="Path 4065" d="M12.732,10.914a.911.911,0,0,1-.9-.9v-4.9a3.3,3.3,0,0,0-6.609,0v4.9a.9.9,0,0,1-1.809,0v-4.9a5.113,5.113,0,1,1,10.226,0v4.9A.911.911,0,0,1,12.732,10.914Z" transform="translate(-3.41)" fill="#12131a"/>
  </g>
  <g id="Group_9979" data-name="Group 9979" transform="translate(3.717 18.897)">
    <path id="Path_4066" data-name="Path 4066" d="M13.2,17.479H3.984a.9.9,0,1,1,0-1.809H13.2a.9.9,0,0,1,0,1.809Z" transform="translate(-3.08 -15.67)" fill="#12131a"/>
  </g>
</svg>
