<svg xmlns="http://www.w3.org/2000/svg" width="20.388" height="19.315" viewBox="0 0 20.388 19.315">
  <path id="ico" d="M16.857,14.834l5.259,4.983a.846.846,0,0,1,0,1.242.964.964,0,0,1-1.311,0l-5.259-4.983A8.6,8.6,0,0,1,10.341,17.8,8.13,8.13,0,0,1,2,9.9,8.13,8.13,0,0,1,10.341,2a8.13,8.13,0,0,1,8.341,7.9,7.614,7.614,0,0,1-1.824,4.932Zm-6.517,1.214A6.323,6.323,0,0,0,16.828,9.9a6.323,6.323,0,0,0-6.487-6.146A6.323,6.323,0,0,0,3.853,9.9,6.323,6.323,0,0,0,10.341,16.047Z" transform="translate(-2 -2)"/>
</svg>
